<?xml version="1.0" standalone="no"?>
<!DOCTYPE svg PUBLIC "-//W3C//DTD SVG 20010904//EN"
 "http://www.w3.org/TR/2001/REC-SVG-20010904/DTD/svg10.dtd">
<svg version="1.0" xmlns="http://www.w3.org/2000/svg"
 width="1024.000000pt" height="1024.000000pt" viewBox="0 0 1024.000000 1024.000000"
 preserveAspectRatio="xMidYMid meet">

<g transform="translate(0.000000,1024.000000) scale(0.100000,-0.100000)"
fill="#000000" stroke="none">
<path d="M4620 7665 c-69 -13 -505 -94 -970 -179 -465 -86 -861 -161 -880
-167 -112 -36 -225 -130 -274 -227 -33 -64 -56 -152 -56 -211 0 -24 39 -258
86 -520 47 -262 101 -561 119 -666 219 -1222 307 -1711 321 -1765 52 -216 243
-370 459 -370 24 0 201 29 394 65 l350 65 843 -192 c788 -179 850 -192 943
-192 77 0 113 4 159 21 l60 21 43 -30 c187 -128 429 -108 594 49 70 67 170
200 202 270 19 43 22 70 27 273 l5 225 32 65 c18 36 55 92 83 125 104 122 164
234 202 374 28 103 30 305 3 406 -25 96 -74 210 -121 281 -79 119 -232 260
-336 310 -21 10 -38 24 -38 31 0 8 39 177 86 376 95 400 104 466 70 567 -39
115 -133 223 -241 275 -38 19 -205 59 -586 141 -660 141 -854 183 -901 195
-35 9 -38 13 -54 70 -44 155 -176 281 -341 324 -76 20 -133 18 -283 -10z m270
-226 c55 -24 96 -62 120 -109 11 -22 61 -279 134 -690 64 -360 154 -871 201
-1135 174 -977 195 -1096 195 -1118 0 -91 -72 -198 -158 -235 -28 -12 -288
-64 -637 -127 -324 -59 -747 -136 -940 -172 -376 -70 -418 -73 -492 -34 -45
22 -99 79 -114 120 -11 28 -34 153 -280 1516 -88 490 -180 1000 -205 1135 -53
285 -54 332 -8 406 57 92 58 93 634 200 283 52 713 133 955 179 242 45 465 83
495 84 35 0 71 -7 100 -20z m916 -504 c269 -58 574 -124 678 -146 105 -22 201
-47 215 -54 38 -20 88 -75 105 -117 23 -54 20 -108 -15 -248 -16 -69 -50 -210
-75 -315 -24 -104 -49 -206 -54 -225 l-9 -35 -127 4 c-102 2 -143 -1 -219 -18
-97 -23 -222 -78 -303 -133 -68 -46 -166 -143 -222 -218 -45 -61 -118 -197
-134 -252 -4 -12 -9 -18 -11 -13 -2 6 -34 183 -70 395 -36 212 -95 545 -130
740 -125 692 -133 740 -121 740 2 0 224 -47 492 -105z m848 -1365 c362 -92
595 -466 507 -812 -31 -119 -74 -195 -199 -349 -62 -75 -105 -165 -126 -261
l-6 -28 -333 0 -333 0 -23 78 c-28 96 -66 163 -148 261 -71 84 -135 204 -158
296 -19 76 -19 234 0 310 22 86 85 211 139 277 162 198 437 290 680 228z
m-728 -1390 c26 -62 28 -75 33 -291 l6 -226 33 -63 c18 -35 30 -65 27 -68 -3
-3 -29 -7 -58 -9 -41 -4 -181 24 -641 126 -324 72 -598 131 -609 131 -41 0 -7
11 79 26 461 79 631 115 701 149 158 77 263 240 263 407 l0 60 70 -88 c40 -51
81 -116 96 -154z m904 -355 l0 -95 -335 0 -335 0 0 95 0 95 335 0 335 0 0 -95z
m-140 -283 c0 -16 -46 -51 -93 -72 -93 -41 -208 -24 -280 41 l-42 38 208 1
c114 0 207 -4 207 -8z"/>
<path d="M3915 6556 c-100 -20 -114 -25 -124 -45 -6 -10 -76 -351 -155 -757
-126 -641 -144 -741 -131 -753 12 -13 27 -12 112 3 59 10 105 24 115 34 12 12
28 69 48 166 16 82 33 153 38 158 9 9 496 97 551 100 19 1 37 -5 43 -13 5 -8
39 -68 77 -134 37 -65 75 -124 84 -129 19 -12 212 17 234 35 31 26 43 4 -552
1010 -101 171 -189 317 -195 325 -15 16 -61 17 -145 0z m123 -454 c83 -144
232 -425 229 -428 -5 -5 -400 -74 -404 -71 -5 6 87 527 103 580 8 26 18 15 72
-81z"/>
<path d="M6455 6421 c-11 -5 -29 -19 -40 -31 -18 -20 -20 -39 -23 -172 -4
-167 3 -200 49 -223 46 -24 77 -19 116 20 l34 34 -3 160 c-3 156 -4 161 -28
186 -28 27 -74 39 -105 26z"/>
<path d="M5718 6134 c-37 -19 -56 -80 -37 -117 8 -14 58 -71 112 -126 95 -99
99 -101 143 -101 73 0 121 65 94 129 -6 16 -58 74 -114 130 -91 89 -107 101
-137 101 -19 -1 -46 -7 -61 -16z"/>
<path d="M7132 6036 l-115 -115 6 -43 c8 -57 43 -88 99 -88 38 0 47 6 140 98
112 109 132 140 123 182 -9 42 -58 80 -103 80 -33 0 -47 -11 -150 -114z"/>
<path d="M7585 5434 c-55 -14 -110 -31 -122 -39 -45 -30 -46 -116 -3 -160 28
-27 101 -26 210 5 103 28 140 59 140 115 0 49 -15 74 -55 91 -44 18 -51 18
-170 -12z"/>
</g>
</svg>
